#!OML:ASF F:\VICON\USERDATA\INSTALL\rory3\rory3.ASF
:FULLY-SPECIFIED
:DEGREES
29
root -1.077555171979438 17.34245806214191 -2.6803694477230184 2.6021529543267787 2.200847894408131 1.5143918113079209
lfemur -10.008382838877445 -0.9810817049074514 -28.705296235334558
ltibia 31.989715692916903
lfoot -3.4344436940747793 -12.151215797575716
ltoes 1.7905342373139703
rfemur -22.724161122782768 -1.099900424964936 20.933784326778095
rtibia 88.0335125823008
rfoot 12.349343818970986 -14.745358226907683
rtoes 23.86654981498121
lowerback 17.057737173383984 0.3990372747872057 -3.257452209697215
upperback 0.02727305763002308 0.12117892860720447 -0.9690663103081187
thorax -9.279128727453203 0.17517504420918445 1.3204433311456385
lowerneck -19.9023305869203 -5.040288079524455 -2.1019977843636637
upperneck 10.33690197876283 -7.095887539575275 4.892659667293591
head 6.697942161161286 -3.1043075110431886 1.1569416355716529
lclavicle -6.477657498996818e-16 -4.860687357150485e-15
lhumerus -51.75308984769952 -13.82263749846429 98.40254714479005
lradius 110.61170408943403
lwrist 34.082594800253375
lhand -32.77083836876824 0.3056990854790297
lfingers 7.125019999999998
lthumb -6.428681262552811 29.904285579457113
rclavicle -6.477657499498466e-16 -4.860687357185058e-15
rhumerus -47.66542358890481 14.66271828979264 -101.91895655992035
rradius 112.60263634404376
rwrist -12.58237993149367
rhand -18.83631393322301 33.02430827369991
rfingers 7.125019999999998
rthumb 7.352476213234452 2.668539656456139
30
root -1.099233542615407 17.08648142325531 -1.8266981440475671 2.5687480439703236 1.1420917589373851 1.596148422338856
lfemur -7.328041661838441 -0.6392325899835503 -28.759776806719785
ltibia 33.76485746141054
lfoot -6.879515573778221 -7.967232298843619
ltoes 2.2677286485226826
rfemur -27.385317008847906 -1.44053976892563 20.396175937603132
rtibia 92.54383080395877
rfoot 9.989938839247856 -13.035856201524393
rtoes 25.440995636443965
lowerback 17.478548144953532 0.286420931065584 -3.666545340717229
upperback 0.24443568761276568 -0.10558087110046344 -1.157452985124282
thorax -9.440101905009927 0.09143968208110109 1.5589689878814164
lowerneck -20.2497954349332 -4.756279094852163 -2.0336649171833376
upperneck 10.22170883618649 -6.709566208855277 5.054663093967175
head 6.686585169050867 -2.9164746062784075 1.2580868231984546
lclavicle -6.477657499114837e-16 -4.86068735715791e-15
lhumerus -47.76072010428741 -15.734574849629647 98.4794065690678
lradius 110.82218366090956
lwrist 33.81634093817023
lhand -33.070833936526526 0.48749854093729583
lfingers 7.125019999999998
lthumb -6.644196509142854 30.114197570243455
rclavicle -6.477657499279128e-16 -4.86068735716874e-15
rhumerus -47.949499900524984 13.798860578759218 -102.38609841703604
rradius 110.40444476896093
rwrist -11.9483103888407
rhand -18.87014043154207 32.8595821666612
rfingers 7.125019999999998
rthumb 7.300812549107573 2.3341261522635524
31
root -1.1256796065834482 16.865565480843113 -1.552868067781315 2.687338868411917 -0.4226304989799248 1.4208175459661805
lfemur -4.6051973223746945 -0.04579554443649303 -27.953292511626177
ltibia 35.13952323186214
lfoot -9.276179396632097 -4.205775776119268
ltoes 0.2722499210007374
rfemur -31.322460268685397 -1.0561410435792609 20.636631679329174
rtibia 95.2156137779074
rfoot 7.9926716907879864 -10.941596902755355
rtoes 26.513897822576965
lowerback 17.682240985147615 0.23347041773328148 -3.8168701767231
upperback 0.2560370610322572 -0.2641275682317378 -1.0547720286921332
thorax -9.627232306947432 0.020723483572865187 1.748785241121717
lowerneck -20.564365879721638 -4.477321197985559 -2.047217713142975
upperneck 10.225809542026179 -6.331030413225832 5.153639686184969
head 6.7446625029017575 -2.7282987741802622 1.3480264623213656
lclavicle -6.477657499098526e-16 -4.860687357156177e-15
lhumerus -43.51745129241776 -17.205345075081482 98.25224822984339
lradius 110.9308827973212
lwrist 33.30675797839062
lhand -32.79573761905734 0.6559132112450403
lfingers 7.125019999999998
lthumb -6.4597813102713175 30.209021284047534
rclavicle -6.477657499489563e-16 -4.86068735718321e-15
rhumerus -48.55137449925296 12.859080634951766 -102.67103887652182
rradius 108.8292589168549
rwrist -11.898902778669555
rhand -18.831624807828977 35.002262503089064
rfingers 7.125019999999998
rthumb 7.438857215265833 4.916883713305097
32
root -1.1359222610082629 16.76491706466688 -0.42809525240506296 3.3372856698509636 -1.6674919823101535 0.8569621339781957
lfemur -2.5976188191894103 0.6166918266946164 -26.887741523487676
ltibia 37.272804886154844
lfoot -10.726310460868975 -1.7255800262433052
ltoes -2.911008914374446
rfemur -34.276913014076854 -0.4515284771343362 21.604351896245262
rtibia 94.83242936331763
rfoot 5.93996462474836 -9.127142823327121
rtoes 24.056109101680725
lowerback 17.559460636114334 0.11440671040290318 -3.5707821356306813
upperback 0.23706052846818138 -0.41685056323548764 -0.7960760018729112
thorax -9.66784327089783 -0.05003856948000168 2.008332938492132
lowerneck -20.83796050239886 -4.126714397493757 -2.0279253168907516
upperneck 10.296091000414828 -5.806943195854544 4.964775730615779
head 6.804794265309049 -2.4760712788587855 1.3357492484423608
lclavicle -6.477657499171851e-16 -4.86068735715987e-15
lhumerus -39.50743324941843 -17.88009572462396 97.66145740907699
lradius 111.2436734824715
lwrist 32.93973040909836
lhand -32.363458073255785 0.5882592161011758
lfingers 7.125019999999998
lthumb -6.004176831269045 30.213199890266853
rclavicle -6.477657499546122e-16 -4.86068735718573e-15
rhumerus -49.226425451995105 12.008572300481456 -102.78397486552731
rradius 108.20594139090619
rwrist -12.253539352963772
rhand -18.751219632973836 35.233196223677474
rfingers 7.125019999999998
rthumb 7.155983107060755 4.2045401857220766
